<svg xmlns="http://www.w3.org/2000/svg" viewBox="0 0 1280 400" width="1280" height="400">
  <rect width="1280" height="400" fill="#0B0B0C"/>
  <circle cx="760.0" cy="80.0" r="1.6" fill="#3A3A3C"/>
  <circle cx="784.0" cy="80.0" r="1.6" fill="#3A3A3C"/>
  <circle cx="808.0" cy="80.0" r="1.6" fill="#3A3A3C"/>
  <circle cx="832.0" cy="80.0" r="1.6" fill="#3A3A3C"/>
  <circle cx="856.0" cy="80.0" r="1.6" fill="#3A3A3C"/>
  <circle cx="880.0" cy="80.0" r="1.6" fill="#3A3A3C"/>
  <circle cx="904.0" cy="80.0" r="1.6" fill="#3A3A3C"/>
  <circle cx="928.0" cy="80.0" r="1.6" fill="#3A3A3C"/>
  <circle cx="952.3" cy="82.6" r="1.6" fill="#3A3A3C"/>
  <circle cx="983.1" cy="82.0" r="1.6" fill="#3A3A3C"/>
  <circle cx="1007.4" cy="67.3" r="1.6" fill="#FF4400"/>
  <circle cx="1033.6" cy="86.8" r="1.6" fill="#3A3A3C"/>
  <circle cx="1049.0" cy="65.6" r="1.6" fill="#3A3A3C"/>
  <circle cx="1106.2" cy="56.1" r="1.6" fill="#3A3A3C"/>
  <circle cx="1107.0" cy="121.1" r="1.6" fill="#3A3A3C"/>
  <circle cx="1166.6" cy="112.6" r="1.6" fill="#3A3A3C"/>
  <circle cx="1148.3" cy="132.1" r="1.6" fill="#3A3A3C"/>
  <circle cx="1241.7" cy="66.6" r="1.6" fill="#3A3A3C"/>
  <circle cx="760.0" cy="100.0" r="1.6" fill="#3A3A3C"/>
  <circle cx="784.0" cy="100.0" r="1.6" fill="#3A3A3C"/>
  <circle cx="808.0" cy="100.0" r="1.6" fill="#3A3A3C"/>
  <circle cx="832.0" cy="100.0" r="1.6" fill="#3A3A3C"/>
  <circle cx="856.0" cy="100.0" r="1.6" fill="#3A3A3C"/>
  <circle cx="880.0" cy="100.0" r="1.6" fill="#3A3A3C"/>
  <circle cx="904.0" cy="100.0" r="1.6" fill="#3A3A3C"/>
  <circle cx="928.0" cy="100.0" r="1.6" fill="#3A3A3C"/>
  <circle cx="954.7" cy="98.7" r="1.6" fill="#3A3A3C"/>
  <circle cx="984.9" cy="106.2" r="1.6" fill="#3A3A3C"/>
  <circle cx="1003.9" cy="90.3" r="1.6" fill="#3A3A3C"/>
  <circle cx="1036.6" cy="75.8" r="1.6" fill="#3A3A3C"/>
  <circle cx="1118.5" cy="63.8" r="1.6" fill="#3A3A3C"/>
  <circle cx="1098.5" cy="97.6" r="1.6" fill="#3A3A3C"/>
  <circle cx="1184.8" cy="163.8" r="1.6" fill="#3A3A3C"/>
  <circle cx="760.0" cy="120.0" r="1.6" fill="#3A3A3C"/>
  <circle cx="784.0" cy="120.0" r="1.6" fill="#3A3A3C"/>
  <circle cx="808.0" cy="120.0" r="1.6" fill="#3A3A3C"/>
  <circle cx="832.0" cy="120.0" r="1.6" fill="#3A3A3C"/>
  <circle cx="856.0" cy="120.0" r="1.6" fill="#3A3A3C"/>
  <circle cx="880.0" cy="120.0" r="1.6" fill="#3A3A3C"/>
  <circle cx="904.0" cy="120.0" r="1.6" fill="#3A3A3C"/>
  <circle cx="928.0" cy="120.0" r="1.6" fill="#3A3A3C"/>
  <circle cx="950.8" cy="122.0" r="1.6" fill="#3A3A3C"/>
  <circle cx="974.9" cy="118.7" r="1.6" fill="#3A3A3C"/>
  <circle cx="1015.2" cy="118.4" r="1.6" fill="#3A3A3C"/>
  <circle cx="1001.3" cy="139.6" r="1.6" fill="#3A3A3C"/>
  <circle cx="1070.9" cy="102.4" r="1.6" fill="#3A3A3C"/>
  <circle cx="1150.7" cy="116.2" r="1.6" fill="#3A3A3C"/>
  <circle cx="1204.6" cy="125.3" r="1.6" fill="#3A3A3C"/>
  <circle cx="1140.2" cy="169.9" r="1.6" fill="#3A3A3C"/>
  <circle cx="1229.5" cy="67.9" r="1.6" fill="#3A3A3C"/>
  <circle cx="1274.4" cy="75.9" r="2.2" fill="#3A3A3C"/>
  <circle cx="760.0" cy="140.0" r="1.6" fill="#3A3A3C"/>
  <circle cx="784.0" cy="140.0" r="1.6" fill="#3A3A3C"/>
  <circle cx="808.0" cy="140.0" r="1.6" fill="#3A3A3C"/>
  <circle cx="832.0" cy="140.0" r="1.6" fill="#3A3A3C"/>
  <circle cx="856.0" cy="140.0" r="1.6" fill="#3A3A3C"/>
  <circle cx="880.0" cy="140.0" r="1.6" fill="#3A3A3C"/>
  <circle cx="904.0" cy="140.0" r="1.6" fill="#3A3A3C"/>
  <circle cx="928.0" cy="140.0" r="1.6" fill="#3A3A3C"/>
  <circle cx="949.5" cy="141.9" r="1.6" fill="#3A3A3C"/>
  <circle cx="1011.4" cy="134.4" r="1.6" fill="#3A3A3C"/>
  <circle cx="1051.4" cy="128.5" r="1.6" fill="#3A3A3C"/>
  <circle cx="1048.5" cy="148.3" r="1.6" fill="#3A3A3C"/>
  <circle cx="1201.0" cy="145.5" r="2.2" fill="#3A3A3C"/>
  <circle cx="1127.8" cy="185.1" r="1.6" fill="#3A3A3C"/>
  <circle cx="760.0" cy="160.0" r="1.6" fill="#3A3A3C"/>
  <circle cx="784.0" cy="160.0" r="1.6" fill="#3A3A3C"/>
  <circle cx="808.0" cy="160.0" r="1.6" fill="#3A3A3C"/>
  <circle cx="832.0" cy="160.0" r="1.6" fill="#3A3A3C"/>
  <circle cx="856.0" cy="160.0" r="1.6" fill="#3A3A3C"/>
  <circle cx="880.0" cy="160.0" r="1.6" fill="#3A3A3C"/>
  <circle cx="904.0" cy="160.0" r="1.6" fill="#3A3A3C"/>
  <circle cx="928.0" cy="160.0" r="1.6" fill="#3A3A3C"/>
  <circle cx="954.3" cy="159.8" r="1.6" fill="#3A3A3C"/>
  <circle cx="970.1" cy="152.0" r="1.6" fill="#3A3A3C"/>
  <circle cx="1013.1" cy="173.1" r="1.6" fill="#3A3A3C"/>
  <circle cx="1018.9" cy="178.9" r="1.6" fill="#3A3A3C"/>
  <circle cx="1089.9" cy="176.6" r="1.6" fill="#3A3A3C"/>
  <circle cx="1121.2" cy="150.4" r="1.6" fill="#3A3A3C"/>
  <circle cx="1169.6" cy="112.6" r="1.6" fill="#FF4400"/>
  <circle cx="1198.0" cy="185.7" r="1.6" fill="#3A3A3C"/>
  <circle cx="1185.2" cy="204.8" r="1.6" fill="#3A3A3C"/>
  <circle cx="760.0" cy="180.0" r="1.6" fill="#3A3A3C"/>
  <circle cx="784.0" cy="180.0" r="1.6" fill="#3A3A3C"/>
  <circle cx="808.0" cy="180.0" r="1.6" fill="#3A3A3C"/>
  <circle cx="832.0" cy="180.0" r="1.6" fill="#3A3A3C"/>
  <circle cx="856.0" cy="180.0" r="1.6" fill="#3A3A3C"/>
  <circle cx="880.0" cy="180.0" r="1.6" fill="#3A3A3C"/>
  <circle cx="904.0" cy="180.0" r="1.6" fill="#3A3A3C"/>
  <circle cx="928.0" cy="180.0" r="1.6" fill="#3A3A3C"/>
  <circle cx="949.8" cy="177.3" r="1.6" fill="#3A3A3C"/>
  <circle cx="983.6" cy="172.8" r="1.6" fill="#3A3A3C"/>
  <circle cx="989.0" cy="185.5" r="1.6" fill="#3A3A3C"/>
  <circle cx="1031.9" cy="160.6" r="1.6" fill="#3A3A3C"/>
  <circle cx="1072.5" cy="205.4" r="1.6" fill="#3A3A3C"/>
  <circle cx="1138.1" cy="221.0" r="1.6" fill="#3A3A3C"/>
  <circle cx="1191.9" cy="190.7" r="1.6" fill="#3A3A3C"/>
  <circle cx="1213.2" cy="185.1" r="1.6" fill="#3A3A3C"/>
  <circle cx="1238.8" cy="214.2" r="1.6" fill="#3A3A3C"/>
  <circle cx="760.0" cy="200.0" r="1.6" fill="#3A3A3C"/>
  <circle cx="784.0" cy="200.0" r="1.6" fill="#3A3A3C"/>
  <circle cx="808.0" cy="200.0" r="1.6" fill="#3A3A3C"/>
  <circle cx="832.0" cy="200.0" r="1.6" fill="#3A3A3C"/>
  <circle cx="856.0" cy="200.0" r="1.6" fill="#3A3A3C"/>
  <circle cx="880.0" cy="200.0" r="1.6" fill="#3A3A3C"/>
  <circle cx="904.0" cy="200.0" r="1.6" fill="#3A3A3C"/>
  <circle cx="928.0" cy="200.0" r="1.6" fill="#3A3A3C"/>
  <circle cx="950.0" cy="199.6" r="1.6" fill="#3A3A3C"/>
  <circle cx="979.9" cy="198.4" r="1.6" fill="#3A3A3C"/>
  <circle cx="1057.3" cy="181.6" r="1.6" fill="#3A3A3C"/>
  <circle cx="1062.4" cy="182.2" r="1.6" fill="#3A3A3C"/>
  <circle cx="1084.7" cy="218.3" r="1.6" fill="#3A3A3C"/>
  <circle cx="1074.8" cy="159.6" r="1.6" fill="#3A3A3C"/>
  <circle cx="1125.6" cy="214.3" r="1.6" fill="#3A3A3C"/>
  <circle cx="760.0" cy="220.0" r="1.6" fill="#3A3A3C"/>
  <circle cx="784.0" cy="220.0" r="1.6" fill="#3A3A3C"/>
  <circle cx="808.0" cy="220.0" r="1.6" fill="#3A3A3C"/>
  <circle cx="832.0" cy="220.0" r="1.6" fill="#3A3A3C"/>
  <circle cx="856.0" cy="220.0" r="1.6" fill="#3A3A3C"/>
  <circle cx="880.0" cy="220.0" r="1.6" fill="#3A3A3C"/>
  <circle cx="904.0" cy="220.0" r="1.6" fill="#3A3A3C"/>
  <circle cx="928.0" cy="220.0" r="1.6" fill="#3A3A3C"/>
  <circle cx="949.2" cy="222.6" r="1.6" fill="#3A3A3C"/>
  <circle cx="980.5" cy="218.9" r="1.6" fill="#3A3A3C"/>
  <circle cx="991.7" cy="228.6" r="1.6" fill="#3A3A3C"/>
  <circle cx="1020.8" cy="229.1" r="1.6" fill="#3A3A3C"/>
  <circle cx="1069.4" cy="199.2" r="1.6" fill="#3A3A3C"/>
  <circle cx="1069.2" cy="226.8" r="2.2" fill="#3A3A3C"/>
  <circle cx="1152.2" cy="206.6" r="1.6" fill="#3A3A3C"/>
  <circle cx="1116.6" cy="173.4" r="1.6" fill="#3A3A3C"/>
  <circle cx="1198.1" cy="218.8" r="1.6" fill="#3A3A3C"/>
  <circle cx="1214.1" cy="218.9" r="1.6" fill="#3A3A3C"/>
  <circle cx="760.0" cy="240.0" r="1.6" fill="#3A3A3C"/>
  <circle cx="784.0" cy="240.0" r="1.6" fill="#3A3A3C"/>
  <circle cx="808.0" cy="240.0" r="1.6" fill="#3A3A3C"/>
  <circle cx="832.0" cy="240.0" r="1.6" fill="#3A3A3C"/>
  <circle cx="856.0" cy="240.0" r="1.6" fill="#3A3A3C"/>
  <circle cx="880.0" cy="240.0" r="1.6" fill="#3A3A3C"/>
  <circle cx="904.0" cy="240.0" r="1.6" fill="#3A3A3C"/>
  <circle cx="928.0" cy="240.0" r="1.6" fill="#3A3A3C"/>
  <circle cx="954.7" cy="239.9" r="1.6" fill="#3A3A3C"/>
  <circle cx="975.3" cy="239.0" r="1.6" fill="#3A3A3C"/>
  <circle cx="1015.9" cy="239.4" r="1.6" fill="#3A3A3C"/>
  <circle cx="1025.3" cy="243.2" r="1.6" fill="#3A3A3C"/>
  <circle cx="1041.8" cy="256.3" r="1.6" fill="#3A3A3C"/>
  <circle cx="1070.3" cy="241.6" r="1.6" fill="#3A3A3C"/>
  <circle cx="1158.8" cy="250.4" r="1.6" fill="#3A3A3C"/>
  <circle cx="1128.0" cy="209.3" r="1.6" fill="#3A3A3C"/>
  <circle cx="760.0" cy="260.0" r="1.6" fill="#3A3A3C"/>
  <circle cx="784.0" cy="260.0" r="1.6" fill="#3A3A3C"/>
  <circle cx="808.0" cy="260.0" r="1.6" fill="#3A3A3C"/>
  <circle cx="832.0" cy="260.0" r="1.6" fill="#3A3A3C"/>
  <circle cx="856.0" cy="260.0" r="1.6" fill="#3A3A3C"/>
  <circle cx="880.0" cy="260.0" r="1.6" fill="#3A3A3C"/>
  <circle cx="904.0" cy="260.0" r="1.6" fill="#3A3A3C"/>
  <circle cx="928.0" cy="260.0" r="1.6" fill="#3A3A3C"/>
  <circle cx="949.1" cy="262.6" r="1.6" fill="#3A3A3C"/>
  <circle cx="985.7" cy="268.4" r="1.6" fill="#3A3A3C"/>
  <circle cx="983.4" cy="267.2" r="1.6" fill="#3A3A3C"/>
  <circle cx="1045.0" cy="247.5" r="1.6" fill="#3A3A3C"/>
  <circle cx="1047.5" cy="239.4" r="1.6" fill="#3A3A3C"/>
  <circle cx="1085.5" cy="282.0" r="1.6" fill="#3A3A3C"/>
  <circle cx="1076.2" cy="292.4" r="1.6" fill="#3A3A3C"/>
  <circle cx="1201.6" cy="250.9" r="1.6" fill="#3A3A3C"/>
  <circle cx="1144.8" cy="243.7" r="1.6" fill="#3A3A3C"/>
  <circle cx="1259.1" cy="221.8" r="1.6" fill="#FF4400"/>
  <circle cx="760.0" cy="280.0" r="1.6" fill="#3A3A3C"/>
  <circle cx="784.0" cy="280.0" r="1.6" fill="#3A3A3C"/>
  <circle cx="808.0" cy="280.0" r="1.6" fill="#3A3A3C"/>
  <circle cx="832.0" cy="280.0" r="1.6" fill="#3A3A3C"/>
  <circle cx="856.0" cy="280.0" r="1.6" fill="#3A3A3C"/>
  <circle cx="880.0" cy="280.0" r="1.6" fill="#3A3A3C"/>
  <circle cx="904.0" cy="280.0" r="1.6" fill="#3A3A3C"/>
  <circle cx="928.0" cy="280.0" r="1.6" fill="#3A3A3C"/>
  <circle cx="952.1" cy="281.8" r="1.6" fill="#3A3A3C"/>
  <circle cx="977.9" cy="288.4" r="1.6" fill="#3A3A3C"/>
  <circle cx="1001.4" cy="275.7" r="1.6" fill="#3A3A3C"/>
  <circle cx="1021.7" cy="273.0" r="1.6" fill="#3A3A3C"/>
  <circle cx="1052.7" cy="266.6" r="1.6" fill="#3A3A3C"/>
  <circle cx="1091.4" cy="292.6" r="1.6" fill="#3A3A3C"/>
  <circle cx="1111.3" cy="303.4" r="1.6" fill="#3A3A3C"/>
  <circle cx="1070.0" cy="280.2" r="1.6" fill="#3A3A3C"/>
  <circle cx="1189.8" cy="274.3" r="1.6" fill="#3A3A3C"/>
  <circle cx="1198.4" cy="270.4" r="1.6" fill="#3A3A3C"/>
  <circle cx="1247.9" cy="299.3" r="1.6" fill="#3A3A3C"/>
  <circle cx="760.0" cy="300.0" r="1.6" fill="#3A3A3C"/>
  <circle cx="784.0" cy="300.0" r="1.6" fill="#3A3A3C"/>
  <circle cx="808.0" cy="300.0" r="1.6" fill="#3A3A3C"/>
  <circle cx="832.0" cy="300.0" r="1.6" fill="#3A3A3C"/>
  <circle cx="856.0" cy="300.0" r="1.6" fill="#3A3A3C"/>
  <circle cx="880.0" cy="300.0" r="1.6" fill="#3A3A3C"/>
  <circle cx="904.0" cy="300.0" r="1.6" fill="#3A3A3C"/>
  <circle cx="928.0" cy="300.0" r="1.6" fill="#3A3A3C"/>
  <circle cx="955.0" cy="298.0" r="1.6" fill="#3A3A3C"/>
  <circle cx="970.7" cy="291.8" r="1.6" fill="#3A3A3C"/>
  <circle cx="1006.4" cy="290.4" r="1.6" fill="#3A3A3C"/>
  <circle cx="1028.4" cy="305.4" r="1.6" fill="#3A3A3C"/>
  <circle cx="1070.4" cy="284.8" r="1.6" fill="#3A3A3C"/>
  <circle cx="1051.2" cy="304.4" r="1.6" fill="#3A3A3C"/>
  <circle cx="1076.8" cy="334.8" r="1.6" fill="#3A3A3C"/>
  <circle cx="1127.1" cy="315.6" r="2.2" fill="#3A3A3C"/>
  <circle cx="1157.0" cy="299.7" r="1.6" fill="#3A3A3C"/>
  <circle cx="1212.7" cy="314.2" r="1.6" fill="#3A3A3C"/>
  <circle cx="1242.4" cy="343.6" r="1.6" fill="#3A3A3C"/>
  <text x="80" y="196" font-family="Helvetica Neue, Helvetica, Arial, sans-serif" font-weight="300" font-size="58" fill="#EDEAE3" letter-spacing="1">Isma&#235;l Joffroy Chandoutis</text>
  <text x="80" y="240" font-family="Helvetica Neue, Helvetica, Arial, sans-serif" font-weight="400" font-size="21" fill="#8F8B84" letter-spacing="0.5">Filmmaker and artist. Post-documentary cinema.</text>
</svg>